<?xml version="1.0" encoding="UTF-8"?>
<svg id="Warstwa_1" data-name="Warstwa 1" fill="#ffffff" xmlns="http://www.w3.org/2000/svg" viewBox="0 0 963.05 212.31" height="1000" width="1000">
  <g class="cls-1">
    <path d="m138.59,212.19c-37.96,0-75.93-.21-113.88.12C12.31,212.42.03,203.39.02,187.69c-.02-53.99-.03-107.98,0-161.97C.03,13.02,6.86,3.66,18.03.97,20.45.38,23,.05,25.5.05,100.95,0,176.41,0,251.87,0c12.56,0,22.26,7.37,24.7,18.89.57,2.7.62,5.54.62,8.32-.01,53.52-.19,107.05-.04,160.57.04,13.73-9.94,22.6-19.08,24.11-1.65.27-3.35.29-5.02.3-38.15.02-76.3.01-114.45.01h0Zm-10.37-105.5c.07,0,.14,0,.22,0,0,17.09-.05,34.17.07,51.26.02,2.13.65,4.41,1.6,6.33,1,2.03,3.48,2.03,4.87.21.7-.92,1.35-2.14,1.4-3.25.17-3.6.06-7.21.06-10.81.02-16.34,0-32.69.06-49.03.07-15.6.25-31.19.32-46.79,0-1.45-.04-3.14-.75-4.3-.78-1.27-2.27-2.63-3.64-2.86-.9-.15-2.67,1.45-3.08,2.61-.75,2.13-1.07,4.5-1.08,6.78-.08,16.62-.04,33.24-.04,49.85Zm19.92-.47c0-13.1,0-26.2,0-39.29,0-1.02.3-2.29-.19-3.01-.98-1.42-2.24-3.12-3.72-3.54-.88-.25-2.76,1.5-3.53,2.76-.71,1.15-.71,2.84-.7,4.29.02,3.62.31,7.23.32,10.85.05,23.04.05,46.07.09,69.11,0,1-.03,2.25.53,2.93.86,1.05,2.17,2.28,3.36,2.36.98.06,2.42-1.25,2.99-2.31.66-1.23.81-2.84.82-4.29.06-13.28.03-26.57.03-39.85Zm-46.53.14s.03,0,.04,0c0-12.16,0-24.32,0-36.49,0-1.11.33-2.51-.22-3.27-.93-1.3-2.44-3.04-3.69-3.02-1.28.02-2.88,1.7-3.7,3.05-.65,1.06-.41,2.71-.41,4.09.01,22.93.04,45.86.09,68.79,0,2.13-.39,4.45.31,6.35.61,1.65,2.51,2.82,3.83,4.21,1.24-1.38,2.58-2.7,3.67-4.19.36-.49.08-1.45.08-2.19,0-12.44,0-24.88,0-37.32Zm22.97.45c.2,0,.4,0,.59,0,0-11.42.03-22.84-.03-34.26,0-1.64-.18-3.4-.81-4.87-.42-.98-1.77-2.07-2.77-2.15-1.04-.08-2.74.74-3.16,1.62-.84,1.78-1.36,3.87-1.37,5.84-.1,17.09-.06,34.18-.07,51.26,0,6.04-.08,12.07,0,18.11.03,3.1,1.71,5.31,3.8,5.38,2.26.08,3.75-2.09,3.83-5.55,0-.09,0-.19,0-.28,0-11.7,0-23.4,0-35.1Zm46.72-.47s-.02,0-.04,0c0-11.23.04-22.46-.03-33.68-.02-3.07-1.61-4.93-3.79-4.88-2.14.05-3.82,2.07-3.91,4.95-.09,2.97-.03,5.94-.03,8.91,0,19.21,0,38.42.01,57.63,0,3.22,2.05,6.38,3.95,6.29,1.84-.08,3.79-3.06,3.81-6.09.04-11.04.02-22.09.02-33.13Zm-89.2.31s.03,0,.04,0c0,1.95,0,3.89,0,5.84.01,5.93-.04,11.87.08,17.8.05,2.17.97,4.05,3.51,4.29,1.89.17,3.78-1.91,4.05-4.23.05-.46.04-.93.05-1.39.13-13.81.27-27.63.36-41.44.01-1.75.08-3.64-.52-5.22-.52-1.38-1.77-3.07-3.03-3.4-1.01-.27-2.82,1.03-3.7,2.1-.72.87-.79,2.43-.8,3.68-.07,7.32-.03,14.65-.03,21.97Zm69.62-1.38h.11c0,5.48-.04,10.96.02,16.43.03,2.41.26,4.82.39,7.22.11,2.04,1.33,3.73,3.16,3.56,1.36-.13,2.98-1.66,3.71-2.98.75-1.36.76-3.23.77-4.88.05-12.72.02-25.44,0-38.16,0-.83.21-1.92-.22-2.45-1.15-1.42-2.66-3.68-3.92-3.61-1.39.08-2.75,2.29-3.92,3.74-.37.46-.11,1.44-.11,2.18,0,6.31,0,12.63,0,18.94Zm-46.15.57s.06,0,.09,0c0,4.09,0,8.17,0,12.26,0,3.44-.11,6.88.07,10.3.12,2.2,1.34,4.18,3.69,4.19,2.15,0,3.43-1.65,3.57-3.93.05-.83.26-1.66.26-2.49.04-13.65.07-27.31.07-40.96,0-2.32-2.16-4.93-4.01-5.04-1.82-.11-3.71,2.39-3.72,5.05-.02,6.87,0,13.74,0,20.62Zm77.39.5h.01c0-5.66,0-11.32,0-16.99,0-2.47-1.74-4.12-3.71-4.08-1.3.03-2.71,2.02-3.76,3.37-.47.6-.2,1.8-.2,2.72,0,8.82,0,17.64,0,26.45,0,1.76-.04,3.53.02,5.29.09,2.41,1.97,4.78,3.79,4.87,2.02.11,3.65-1.87,3.84-4.66.04-.55.02-1.11.02-1.67,0-5.1,0-10.21,0-15.31Zm-116.13.08s-.02,0-.03,0c0-3.81,0-7.61,0-11.42,0-4.12-1.11-5.96-3.68-6.11-2.44-.14-4.4,2.27-4.45,6.03-.11,7.98-.07,15.97,0,23.95.02,2.61,2.26,5.1,4.29,5.06,2.12-.04,3.89-2.44,3.88-5.26,0-4.09,0-8.17,0-12.26Zm139.65.24c0-2.78.06-5.56-.02-8.34-.06-1.93-.14-3.89-.55-5.77-.46-2.1-1.83-3.4-4.22-3.18-2.36.22-3.26,2.02-3.29,3.86-.15,8.8-.22,17.61.07,26.41.05,1.41,1.85,3.44,3.25,3.88.99.31,2.91-1.39,3.97-2.59.68-.78.73-2.26.76-3.43.09-3.61.03-7.23.03-10.84Zm-11.78-.74h.03c0-2.97.39-6-.15-8.87-.3-1.61-1.87-3.52-3.36-4.17-.83-.36-2.82,1.45-4.01,2.57-.55.52-.63,1.72-.64,2.61-.05,5.47-.09,10.94.02,16.41.03,1.24.37,2.67,1.08,3.64.67.91,2.13,1.99,3.03,1.82,1.25-.22,2.57-1.35,3.34-2.44.62-.89.59-2.3.63-3.49.08-2.69.03-5.38.03-8.06Zm-116.14.29c0-2.22.07-4.45-.02-6.67-.09-2.01-2.6-4.6-4.22-4.54-1.69.06-3.86,2.39-3.89,4.51-.05,4.53-.07,9.08.16,13.6.14,2.88,2.11,4.9,4.2,4.6,2.72-.38,3.53-2.54,3.73-4.84.2-2.2.04-4.44.04-6.66Zm131.48-.08c-.05,0-.11,0-.16.01.2,2.01,0,4.18.73,5.98.51,1.25,2.31,2.78,3.49,2.74,1.17-.04,3.1-1.76,3.27-2.95.51-3.54.71-7.23.21-10.74-.19-1.36-2.51-3.27-3.99-3.4-1.88-.17-3.44,1.64-3.54,3.91-.06,1.48-.01,2.96-.01,4.44Zm-154.99.27c0-.92.03-1.84,0-2.76-.09-1.99-1.2-3.58-3.06-3.72-1.17-.09-2.72.91-3.61,1.87-1.72,1.84-1.44,7.99.16,9.95,1.14,1.4,2.45,1.76,4.16.91,2.78-1.38,2.34-3.89,2.35-6.25Zm166.69.14c.04.74-.18,1.64.16,2.19.77,1.26,1.66,3.05,2.8,3.31,1.06.24,3.27-.96,3.63-1.99.71-2.04.91-4.48.5-6.6-.21-1.08-2.49-2.74-3.35-2.49-1.42.42-2.55,2.08-3.59,3.39-.37.48-.12,1.44-.15,2.18Z"/>
    <path d="m945.98,121.57c6.47,9.05,10.89,19.51,15.98,29.6.33.66.59,1.37.79,2.08.72,2.52.24,3.21-2.4,3.22-7.38.03-14.77-.03-22.15.05-1.63.02-2.43-.5-3.09-2.04-3.85-8.94-7.79-17.85-11.86-26.69-.42-.9-1.83-1.8-2.86-1.89-2.87-.26-5.79,0-8.68-.15-2-.11-2.71.76-2.7,2.57.03,6.03.09,12.06.05,18.09-.02,2.68-.26,5.37-.35,8.05-.06,1.56-.88,2.04-2.35,2.03-6.08-.04-12.15.02-18.23-.05-2.82-.03-3.98-1.39-3.99-4.54-.03-9.85-.02-19.69-.02-29.54,0-19.88.06-39.76-.08-59.64-.02-2.81.85-3.86,3.55-3.85,11.96.04,23.92-.16,35.87.14,5.17.13,10.44.78,15.45,2.05,13.61,3.43,23.38,15,23.64,29.75.14,8.04-1.03,15.67-6.44,21.88-2.88,3.3-6.63,5.86-10.13,8.87Zm-36.87-29.18c-.11,0-.22,0-.33,0,0,3.15-.11,6.3.07,9.44.05.81,1.02,2.25,1.54,2.24,6.59-.15,13.29.11,19.74-1,7.28-1.25,9.92-7.21,7.59-14.12-1.52-4.52-5-6.55-9.16-7.11-5.79-.77-11.68-.8-17.52-1.19-1.53-.1-1.94.66-1.93,2,.03,3.25.01,6.49.01,9.74Z"/>
    <path d="m353.51,112.55c-3.65,2.08-5.11,4.72-4.98,8.79.31,9.74.14,19.5.1,29.26-.02,5.3-.64,5.85-6.01,5.85-4.95,0-9.92-.16-14.86.06-2.85.13-3.63-1.06-3.55-3.57.08-2.6-.02-5.2-.02-7.8-.02-27.31-.03-54.62-.05-81.93,0-3.46.46-4.04,4.05-4.09,5.51-.09,11.03-.09,16.54-.05,3.2.03,3.91.71,3.91,4.02,0,7.61-.11,15.23-.17,22.84,0,.34.1.68.24,1.59,1.06-.86,1.86-1.4,2.53-2.07,7.99-7.95,15.99-15.89,23.91-23.91,1.61-1.63,3.31-2.54,5.65-2.52,6.72.07,13.45-.01,20.18.07,2.64.03,3.38,1.18,2.29,3.6-.55,1.23-1.54,2.3-2.48,3.3-9.05,9.64-18.1,19.28-27.22,28.85-1.03,1.09-1.12,1.81-.29,3.07,4.89,7.46,9.76,14.94,14.48,22.51,6.1,9.78,12.05,19.65,18.06,29.48.53.87,1.08,1.75,1.47,2.69.98,2.39.07,3.83-2.46,3.84-7.57.03-15.14-.05-22.71.05-2,.02-2.9-.86-3.84-2.49-7.75-13.33-15.61-26.6-23.45-39.88-.32-.54-.8-.98-1.29-1.57Z"/>
    <path d="m796.04,108c0-14.68,0-29.36,0-44.04,0-4.64.53-5.38,5.24-5.57,7.47-.29,14.95-.37,22.43-.39,12.71-.04,25.43,0,38.14.06,6.96.04,6.96.09,6.96,6.79,0,3.72,0,7.43,0,11.15,0,3.38-.54,3.97-4.08,4.05-6.07.14-12.15.26-18.22.27-7.48,0-14.95-.13-22.43-.2-3.55-.03-3.56-.02-3.57,3.59,0,3.16.11,6.32-.03,9.48-.09,2.08.62,2.74,2.72,2.71,7.66-.1,15.33-.05,23-.04,4.9,0,5.65.75,5.7,5.68.04,3.62.04,7.25.04,10.87,0,4.18-.66,4.95-4.77,5.05-7.66.18-15.32.35-22.98.31-2.7-.01-3.95.61-3.73,3.57.24,3.23.23,6.51,0,9.75-.19,2.68.85,3.28,3.37,3.24,13.08-.23,26.17-.37,39.25-.42,5.74-.02,5.74.11,5.74,5.75,0,3.9,0,7.81,0,11.71-.01,3.41-.46,3.92-3.81,3.99-7.94.18-15.88.39-23.83.43-14.21.06-28.42-.04-42.63.04-2.13.01-2.59-.55-2.57-2.68.12-15.05.06-30.1.06-45.16,0,0,.02,0,.02,0Z"/>
    <path d="m678.94,156.47c-2.99,0-6-.18-8.97.05-2.56.2-3.86-.63-4.69-3.11-1.19-3.6-2.73-7.11-4.37-10.53-.43-.9-1.81-1.92-2.76-1.93-9.81-.14-19.62-.06-29.44-.1-2.18,0-3.38.93-4.15,2.95-1.35,3.55-2.97,6.99-4.43,10.5-.65,1.56-1.68,2.23-3.44,2.2-6.07-.09-12.15,0-18.22-.05-3.15-.03-4.32-1.87-3.19-4.8,8.42-21.76,16.83-43.54,25.26-65.29,3.08-7.95,6.27-15.86,9.33-23.82.78-2.02,1.94-3.44,4.19-3.49,5.88-.14,11.76-.17,17.64-.26,3.04-.05,4.81,1.51,5.85,4.24,2.8,7.36,5.71,14.67,8.51,22.03,3.49,9.17,6.89,18.39,10.39,27.56,3.4,8.9,6.87,17.77,10.32,26.66,1.74,4.49,3.55,8.96,5.27,13.46.88,2.3.04,3.62-2.44,3.7-3.55.1-7.1.03-10.65.03v.02Zm-35.54-66.68c-.32-.02-.63-.05-.95-.07-3.39,10.25-6.79,20.49-10.2,30.78.26.15.5.4.73.41,6.34.05,12.68.1,19.02.09,2.02,0,1.56-1.15,1.11-2.46-2.86-8.4-5.63-16.83-8.45-25.25-.39-1.18-.84-2.33-1.27-3.5Z"/>
    <path d="m422.99,107.52c0-14.95.06-29.9-.06-44.85-.02-2.7.89-3.62,3.53-3.6,12.98.08,25.97-.21,38.95.16,8.19.23,16.41,1.12,23.23,6.61,4.8,3.86,8.32,8.43,10.55,14.31,3.42,9.02,3.07,17.74-.52,26.46-3.55,8.64-11.02,12.7-19.22,15.84-9.01,3.44-18.43,3.46-27.87,3.33-4.17-.06-4.17-.02-4.17,4.05,0,7.15,0,14.3-.02,21.45-.02,4.74-.44,5.17-5.06,5.19-5.33.02-10.66-.12-15.98.06-2.39.08-3.23-.95-3.27-3.03-.05-2.41-.03-4.83-.03-7.24,0-12.91,0-25.81,0-38.72h-.05Zm24.41-27.34c0,8.01-.04,15.23.08,22.46,0,.51,1.23,1.43,1.88,1.42,6.52-.07,13.05-.14,19.56-.56,1.81-.12,4.02-.96,5.23-2.23,3.34-3.49,4.15-7.84,2.47-12.41-1.5-4.08-4.56-6.66-8.91-7.12-6.57-.69-13.18-1.03-20.31-1.56Z"/>
    <path d="m735.66,94.45c4.42-7.52,8.54-14.57,12.7-21.6,2.42-4.08,4.74-8.22,7.46-12.09.79-1.13,2.78-1.97,4.23-2,5.79-.11,11.59.08,17.37.3,3.11.12,3.95,1.55,2.39,4.47-2.9,5.4-6.01,10.69-9.16,15.95-7.06,11.8-14.24,23.54-21.25,35.37-.8,1.35-1.19,3.14-1.21,4.74-.12,10.22-.05,20.44-.11,30.66,0,1.37-.04,2.87-.58,4.08-.4.9-1.63,1.99-2.51,2.01-6.35.18-12.71.12-19.06.12-2.2,0-2.23-1.63-2.25-3.12-.09-7.06-.11-14.12-.17-21.18-.04-4.18.08-8.37-.23-12.53-.15-1.95-.8-4.04-1.81-5.72-9.42-15.69-18.96-31.31-28.47-46.95-.82-1.35-1.78-2.63-2.44-4.05-.96-2.07-.23-3.73,1.99-3.82,6.51-.25,13.05-.35,19.56-.11,1.31.05,2.98,1.6,3.78,2.88,6.17,9.95,12.18,20,18.23,30.02.42.7.84,1.39,1.54,2.55Z"/>
    <path d="m517.26,107.46c0-14.77,0-29.54,0-44.31,0-3.71.25-4.01,3.93-4.06,5.42-.07,10.84-.11,16.26-.05,3.83.04,4.33.62,4.33,4.48.01,19.78,0,39.57.02,59.35,0,2.6.22,5.2.15,7.8-.07,2.35.73,3.21,3.24,3.17,9.9-.14,19.81-.07,29.72-.06,3.89,0,4.38.5,4.39,4.32,0,5.2-.06,10.4.03,15.6.04,2.01-.6,2.78-2.72,2.78-18.79-.06-37.57-.07-56.36.01-2.38.01-2.91-1.23-2.94-3.07-.07-3.71-.04-7.43-.04-11.15,0-11.61,0-23.22,0-34.83h-.01Z"/>
  </g>
</svg>